# xmcd CD database file
#
# Track frame offsets:
#	150
#	14925
#	35175
#
# Disc length: 662 seconds
#
# Revision: 0
# Processed by: cddbd v1.5PL3 Copyright (c) Steve Scherf et al.
# Submitted via: CDex 1.51
#
DISCID=28029403
DTITLE=千聖 - CYBER ROSE
DYEAR=1999
DGENRE=JPop
TTITLE0=CYBER ROSE
TTITLE1=CYBER ROSE 〜dragonfly mix〜
TTITLE2=CYBER ROSE 〜back track〜
EXTD=YEAR: 1999
EXTT0=
EXTT1=
EXTT2=
PLAYORDER=
